<svg version="1" xmlns="http://www.w3.org/2000/svg" width="266.667" height="266.667" viewBox="0 0 200.000000 200.000000"><path d="M86.5 18.6c-.9 1-1.5 2.5-1.2 3.4.3 1.2-1.5 3.5-5.7 7.3-3.3 3-7.8 7.2-10 9.2-2.1 2.1-5.2 4.1-6.9 4.4-2 .4-3.7 1.7-4.7 3.4-1.3 2.4-1.3 3 .1 5.5 1.7 3.1 1.9 2.5-4.4 16.2-2.2 4.7-4.3 9.5-4.8 10.8-.5 1.3-1.3 2.1-1.8 1.8-1.3-.8-6.1 3.3-6.1 5.2 0 .9.9 3 1.9 4.6 1.1 1.7 1.8 3.3 1.6 3.6-.2.4-.7 6-1.1 12.6-.5 9.2-1 12.3-2.4 13.9-2.7 3.2-3.2 5.6-1.5 8.1 2 3.1 6.7 3.2 9.5.2 2-2.1 2.8-2.2 25-2.5 22.2-.4 23-.3 25 1.7 1.7 1.7 2.9 2 5.8 1.5 4.7-.7 20.1 5.2 24.3 9.4 4.9 5 10.6 2.7 11.3-4.4.2-2.2 2.5-8.5 5.1-14 2.6-5.5 5.1-11.1 5.6-12.4.5-1.3 1.2-2.1 1.6-1.7.3.3 1.5-.1 2.5-1.1 2.4-2.2 2.3-6.8-.2-8.6-2-1.4-2.3-2.4-3.6-13.7-.3-3-.9-8.4-1.3-11.9-.6-4.8-.4-7.2.7-9.3 1.2-2.5 1.2-3.2-.2-5.3-.9-1.4-2.2-2.6-2.9-2.6-.6-.1-1.8-.2-2.4-.3-.7 0-4.4-3.7-8.3-8.1-5.4-6.1-6.9-8.5-6.4-10 2.4-7.5-3.4-13.2-9.5-9.3-2.6 1.6-25.9-4.5-27.9-7.3-1.6-2.3-4.5-2.4-6.7-.3zm28.3 11.1c1.2.3 2.7 1.4 3.3 2.5.8 1.6.1 2.9-4.2 8.1-9.9 11.6-11 12.6-13.2 11.8-1.6-.6-2.6-3.2-5.1-13.5-1.8-7.3-2.8-13-2.3-13.5s4.8.2 10.1 1.6c5 1.4 10.1 2.8 11.4 3zm-24.1 3c4.6 18.5 4.9 20.6 2.8 22.3-1.5 1.2-3.1.9-13.1-2.6-13.7-4.7-14.7-6-8.7-11.3C85 29 88.4 26.1 88.8 26.5c.3.2 1.1 3 1.9 6.2zm34.6 5.8c.9.2 3 1.9 4.5 3.6 1.5 1.8 4.6 5.5 7 8.3 2.3 2.7 4.2 5.5 4.2 6.2 0 .8-4.6 1.1-17.2 1-15.3-.1-17.3-.3-17.3-1.7 0-2.7 13.8-18.9 15.5-18.3.8.3 2.3.7 3.3.9zM80.5 56c8.7 2.8 13.5 5.6 13.5 7.9 0 1.6-14.2 20.5-15.5 20.7-.8.1-1.5.1-1.5-.1 0-.1-2.3-6.9-5.1-15-4.8-14-5.4-18.3-2.6-17.3.6.3 5.7 2 11.2 3.8zM69 70.4c4.4 12.9 4.9 14.9 3.7 16.6-.8 1.1-1.6 1.8-1.8 1.6-.2-.2-2.4-.7-4.9-1-16.3-2.2-16.5-2.4-11.6-13.4 7.7-17.4 8.7-19.4 9.1-19 .3.3 2.8 7.1 5.5 15.2zm71.7-6c-.8 1.2-4 6.6-7.2 12.1-5.3 9.2-7.8 12.5-9.5 12.5-.4 0-1.8-1.7-3.1-3.8-1.4-2-5.3-7.7-8.7-12.5-3.4-4.8-6.2-9.4-6.2-10.2 0-1.2 3-1.5 16.8-1.7 9.2-.2 17.3.1 18 .6 1 .7 1 1.3-.1 3zm5.4 2.3c0 1 .2 2.5.3 3.3.5 2.4 1.5 11 2.2 18.5.5 6.1.4 7.2-1.2 8.6-1.8 1.6-2.4 1.5-8.7-.8-10.2-3.8-10.3-4.4-1.7-19.1 7-11.9 8.9-14.1 9.1-10.5zm-34.3 11.4c4.9 7 8.1 12.7 7.8 13.5-.4 1.1-1.6 1.4-4.3 1-2.1-.3-5.8-.8-8.3-1.1-16-1.8-23.6-3-24.1-3.8-.4-.5 2.6-5.6 6.5-11.3C96.1 66.5 96.7 66 100 66c3.3.1 3.9.6 11.8 12.1zM62 90.1c3.6.6 7.2 1.2 7.9 1.3 2.9.5 2.1 2.5-3.1 8.2C50.6 117.3 47.9 120 46.9 120c-.8 0-.7-4.3.6-22.3.2-3.5.9-5.3 2.7-6.7 2.7-2.3 3.3-2.3 11.8-.9zm33 3.4c1.9.3 5.6.7 8.3 1 11.5 1.2 14.3 1.7 15.4 2.7.9.7-.5 3.5-5.7 11.3-5.5 8.1-7.4 10.3-9.1 10.2-2.9-.2-22.3-23.1-21.5-25.3.4-1.1 1.6-1.4 4.8-.9 2.4.3 5.9.7 7.8 1zM82.5 101c2 2.5 5.8 6.9 8.4 9.9 2.5 3 5.2 6.3 5.9 7.3 3 4.2 1.7 4.5-23.4 4.7l-23.9.2 2.5-2.7c1.4-1.6 3-3.3 3.5-4 .6-.6 5-5.4 9.9-10.8 10.2-11.2 11.4-11.5 17.1-4.6zm64.2 2.8c1.7 2.4 1.8 2.2-2.8 12-2.2 4.8-4.5 9.7-5 10.9-1 2.7-2.5 2.9-3.7.5-.5-.9-2.2-7.1-3.7-13.8-2.7-11.6-2.7-12.2-1-14.1l1.8-2.1 6.5 2.5c3.6 1.3 7.1 3.2 7.9 4.1zm-22.5-1.6c1.4 1.1 6.9 21.4 6.8 25.1-.1.6-.9 2.2-2 3.5-1.5 1.8-2.3 2.1-3.7 1.3-1-.5-5-2.2-9-3.7-5.5-2-7.3-3.2-7.5-4.8-.3-1.9 11.8-22.4 13.3-22.5.3-.1 1.2.5 2.1 1.1zM11.8 155.8c-1 .2-1.8.5-1.8.7 0 1.2 6.3 28.1 6.7 28.5.2.2 2.2.6 4.4.7 4.6.3 5.3-.7 6.4-10 .9-6.8 2.1-6.6 3 .6 1.2 8.5 1.8 9.4 6.3 9.3 4.7-.1 5.1-.4 5.8-4.2.3-1.6 1.6-8 3-14.2 1.3-6.3 2.4-11.4 2.4-11.5 0-.1-1.6-.2-3.6-.1-4.2.1-5 1.1-5.8 7.9-1.1 9.1-2.4 13.4-2.7 8.7-.1-1.2-.2-2.5-.4-3-.1-.4-.5-3-1-5.8-1-6.7-1.5-7.4-5.8-7.7-3.6-.3-3.6-.3-4.6 4.5-.6 2.6-1.4 6.6-1.7 8.8-.4 2.2-1.1 4.3-1.7 4.7-.5.3-.8.2-.5-.3.3-.5.1-4.5-.6-8.8-1-7.2-1.3-8-3.6-8.6-1.4-.3-3.3-.4-4.2-.2zM55.6 156c-4.3.8-5.5 2.2-5.7 6.5-.3 8.4.8 10.4 6.3 10.9 4.8.5 5.8 1.3 5.4 3.9-.4 2.8-3.6 3.6-3.6 1 0-1.5-.8-2-4-2.1-3.9-.3-4-.2-4 3.1 0 4.9 2.1 6.2 10.2 6.2 8.4 0 9.8-1.3 9.8-9.1 0-6.2-2.1-8.4-8.2-8.4-3.5 0-3.8-.2-3.8-2.9 0-3.4 2.6-4.9 3.5-2 .5 1.4 1.5 1.9 4.4 1.9 3.5 0 3.8-.2 3.9-2.9.1-5.1-5.6-7.6-14.2-6.1zM79 156c-5.5.6-6.9 2.9-6.3 10.3.4 5.7 1.7 7.1 6.8 7.2 3.9 0 5.4 1.1 5 3.3-.2.9-.4 2-.4 2.4-.2 1.8-3.1.6-3.1-1.2 0-1.7-.7-2-3.9-2-3.4 0-3.9.3-4.4 2.7-.3 1.8.2 3.3 1.7 4.8 1.9 1.9 3.2 2.2 9 2 3.7-.1 7.2-.7 7.8-1.3.6-.6 1.3-3.7 1.4-6.8.3-7-1.7-9.4-7.6-9.4-3.7 0-4-.2-4-2.8 0-1.6.3-3.2.7-3.5.9-.9 3.4 1.3 2.7 2.4-.3.5 1.6.9 4.1.9 4.6 0 4.6 0 4.1-3.1-.9-5.6-3.9-7-13.6-5.9zM98.4 163.2c-1.2.6-2.4 2.2-2.7 3.7-.9 4.7-.1 16.1 1.1 17.3.8.8 4 1.3 8.3 1.3 7.4 0 9.9-1.4 9.9-5.6 0-2.2-5.6-3.1-7.5-1.2-2 2-4.5 1.6-4.5-.7 0-1.8.7-2 6-2h6v-4.8c0-6.9-1.4-8.3-8.6-8.7-3.2-.1-6.9.2-8 .7zm8.6 6.8c0 1.3-.7 2-2 2s-2-.7-2-2 .7-2 2-2 2 .7 2 2zM117.9 163c-.1.7-.1 20.2 0 21.8.1.8 1.4 1.1 3.9.9l3.7-.2.1-6.7c.2-8.1.7-9.8 3.4-9.8 1.6 0 2-.6 2-3.5 0-3.4-2-4.9-3.5-2.5-.4.6-1.2.7-1.8.3-1.4-.9-7.7-1.1-7.8-.3zM132.1 164.3c0 1.2 1.3 6.5 2.8 11.7l2.6 9.5 4.7.1 4.6.1 3-11.1c3.1-11.9 3-12.8-2.2-12.4-2.1.2-2.7.9-3.3 3.8-.4 1.9-.8 3.8-.9 4.2-.1.5-.2 1.8-.3 3-.2 3.4-1.3 1.3-2.5-4.8-1.1-5.7-1.2-5.7-4.9-6-3.3-.3-3.7-.1-3.6 1.9zM158 162.7c-3.1 1-4 3.7-4 11.3 0 10 .9 11.2 8.6 11.5 6 .2 10.3-1 10.5-2.9 0-.6.2-1.9.4-2.9.2-.9-.2-1.7-.8-1.8-.7 0-2.4-.2-3.9-.3-1.7-.1-2.8.3-2.8 1.1 0 .7-.9 1.3-2 1.3-1.3 0-2-.7-2-2 0-1.8.7-2 5.8-2h5.8v-5c-.1-6.5-1.9-8.3-8.8-8.5-2.9-.1-6 0-6.8.2zm8 7.3c0 1.3-.7 2-2 2s-2-.7-2-2 .7-2 2-2 2 .7 2 2zM176.7 163.4c-.3 1-.2 18.2.2 21.2.1 1.4 7.1 1.4 7.2 0 .1-.6.2-3.8.3-7.1.1-6.8.9-8.5 3.7-8.5 1.5 0 1.9-.7 1.9-3.5 0-3.9-1.7-4.6-4.4-1.9-1.2 1.1-1.6 1.2-1.6.2 0-1.6-6.7-2-7.3-.4z"/></svg>